# xmcd
#
# Track frame offsets:
# 150
# 16218
# 29346
# 47853
# 62976
# 77796
# 90390
# 104847
# 115707
# 125805
# 143748
# 157941
# 173832
# 188415
#
# Disc length: 2703 seconds
#
#
# Revision: 0
# Processed by: cddbd v1.5.1PL0 Copyright (c) Steve Scherf et al.
# Submitted via: FreeRIP 2.80 
#
DISCID=b50a8d0e
DTITLE=Belmonte e Andaraí - Os Gigantes
DYEAR=1900
DGENRE=Country
TTITLE0=Ave Mensageira
TTITLE1=Gente de Minha Terra
TTITLE2=Carreta da Fronteira
TTITLE3=A Voz do Povo é a Voz de Deus
TTITLE4=Uma Noite,Não
TTITLE5=Merceditas
TTITLE6=O Tropeiro
TTITLE7=Eterna Saudade
TTITLE8=Visita a Goiás
TTITLE9=Tua Ausência
TTITLE10=Quatro Estados
TTITLE11=Ao Te Perder
TTITLE12=Cavalo Preto Valente
TTITLE13=Adeus, Mariquita Linda
EXTD=
EXTT0=
EXTT1=
EXTT2=
EXTT3=
EXTT4=
EXTT5=
EXTT6=
EXTT7=
EXTT8=
EXTT9=
EXTT10=
EXTT11=
EXTT12=
EXTT13=
PLAYORDER=
